<?xml version="1.0" standalone="no"?>
<!-- Generator: Adobe Fireworks 10, Export SVG Extension by Aaron Beall (http://fireworks.abeall.com) . Version: 0.6.0  -->
<!DOCTYPE svg PUBLIC "-//W3C//DTD SVG 1.1//EN" "http://www.w3.org/Graphics/SVG/1.1/DTD/svg11.dtd">
<svg id="" viewBox="0 0 181 190" style="background-color:#ffffff00" version="1.1"
	xmlns="http://www.w3.org/2000/svg" xmlns:xlink="http://www.w3.org/1999/xlink" xml:space="preserve"
	x="0px" y="0px" width="181px" height="190px"
>
	<g id="Layer%201">
		<g>
			<path d="M 67.0869 82.9485 L 59.8792 82.9485 L 59.8792 59.8302 L 67.0869 59.8302 L 67.0869 82.9485 Z" fill="#c99d66"/>
			<path d="M 82.2411 82.9485 L 75.0313 82.9485 L 75.0313 59.8302 L 82.2411 59.8302 L 82.2411 82.9485 Z" fill="#c99d66"/>
			<path d="M 97.3933 82.9485 L 90.1855 82.9485 L 90.1855 59.8302 L 97.3933 59.8302 L 97.3933 82.9485 Z" fill="#c99d66"/>
			<path d="M 112.5475 82.9485 L 105.3377 82.9485 L 105.3377 59.8302 L 112.5475 59.8302 L 112.5475 82.9485 Z" fill="#c99d66"/>
			<g>
				<path d="M 105.3944 144.8507 L 105.3944 130.1713 C 101.4984 133.0753 96.7485 135.8885 90.9573 138.3502 L 90.9573 138.9987 L 90.1875 138.6783 L 89.4138 139.0074 L 89.4138 138.3502 C 83.6186 135.8885 78.8727 133.0753 74.9747 130.1732 L 74.9747 144.8673 C 79.4139 144.3372 84.5467 143.9729 90.2578 143.9729 C 95.9025 143.9729 100.9845 144.3303 105.3944 144.8507 Z" fill="#c99d66"/>
				<path d="M 74.9747 22.3674 L 74.9747 56.8295 L 105.3944 56.8295 L 105.3944 22.3674 C 105.3944 18.0748 110.4705 13.6855 110.4705 13.6855 C 103.5382 6.7573 98.5617 13.9784 98.5617 13.9784 C 98.6594 9.8792 90.1855 7.6353 90.1855 7.6353 C 90.1855 7.6353 81.7097 9.8792 81.8073 13.9784 C 81.8073 13.9784 76.8309 6.7573 69.8986 13.6855 C 69.8986 13.6855 74.9747 18.0748 74.9747 22.3674 Z" fill="#c99d66"/>
				<path d="M 179.1508 96.5597 L 179.1508 96.5597 C 179.1508 96.5597 176.9038 88.0907 172.8066 88.1873 C 172.8066 88.1873 180.0281 83.2112 173.0977 76.2849 C 173.0977 76.2849 168.7054 81.3578 164.4128 81.3578 L 123.8252 81.3578 L 123.8252 101.8551 L 123.8213 101.8824 C 123.8076 102.0826 123.4774 106.1185 120.8514 111.7616 L 164.4128 111.7616 C 168.7054 111.7616 173.0977 116.8345 173.0977 116.8345 C 180.0281 109.9092 172.8066 104.931 172.8066 104.931 C 176.9038 105.0297 179.1508 96.5597 179.1508 96.5597 Z" fill="#c99d66"/>
				<path d="M 105.4042 171.0117 C 101.2366 170.4326 96.1898 170.0206 90.2578 170.0206 C 84.195 170.0206 79.072 170.458 74.9669 171.0332 C 74.7559 175.2321 69.8986 179.4338 69.8986 179.4338 C 76.8309 186.3621 81.8073 179.1439 81.8073 179.1439 C 81.7097 183.2402 90.1855 185.4832 90.1855 185.4832 C 90.1855 185.4832 98.6594 183.2402 98.5617 179.1439 C 98.5617 179.1439 103.5382 186.3621 110.4705 179.4338 C 110.4705 179.4338 105.5995 175.2194 105.4042 171.0117 Z" fill="#c99d66"/>
				<path d="M 56.5478 101.8824 L 56.5459 101.8551 L 56.5459 81.3578 L 15.9563 81.3578 C 11.6637 81.3578 7.2714 76.2849 7.2714 76.2849 C 0.343 83.2112 7.5645 88.1863 7.5645 88.1863 C 3.4652 88.0907 1.2203 96.5597 1.2203 96.5597 C 1.2203 96.5597 3.4652 105.0297 7.5645 104.931 C 7.5645 104.931 0.343 109.9092 7.2714 116.8345 C 7.2714 116.8345 11.6637 111.7616 15.9563 111.7616 L 59.5196 111.7616 C 56.8917 106.1185 56.5615 102.0826 56.5478 101.8824 Z" fill="#c99d66"/>
			</g>
			<g>
				<path d="M 73.5523 125.1091 C 74.0349 125.5261 74.5292 125.9402 75.0313 126.3473 L 75.0313 87.7802 L 67.8235 87.7802 L 67.8235 119.2083 C 69.5175 121.2872 71.4304 123.2596 73.5523 125.1091 Z" fill="#c99d66"/>
			</g>
			<g>
				<path d="M 90.1855 87.7802 L 82.9758 87.7802 L 82.9758 131.7463 C 85.2442 133.0431 87.6475 134.2412 90.1855 135.3378 L 90.1855 87.7802 Z" fill="#c99d66"/>
			</g>
			<g>
				<path d="M 105.3377 87.7802 L 98.1299 87.7802 L 98.1299 131.3215 C 100.7266 129.7904 103.1338 128.1313 105.3377 126.3473 L 105.3377 87.7802 Z" fill="#c99d66"/>
			</g>
			<g>
				<path d="M 120.4919 103.3258 L 120.4919 87.7802 L 113.2821 87.7802 L 113.2821 118.2826 C 114.4037 116.8267 115.4216 115.3258 116.3263 113.7781 C 118.9835 109.2374 120.064 105.4037 120.4919 103.3258 Z" fill="#c99d66"/>
			</g>
			<g>
				<path d="M 137.7895 161.7283 L 123.8877 154.8158 L 121.4434 174.1189 L 112.1196 175.2877 L 127.688 183.9237 L 126.6759 170.0001 L 137.7895 161.7283 Z" fill="#c99d66"/>
				<path d="M 105.9161 160.3094 C 105.0329 160.6024 104.3491 161.5056 104.1635 162.7369 C 103.9075 164.4448 104.7516 165.5386 106.5003 165.7992 C 108.2079 166.057 109.4448 165.2329 109.6616 163.7926 C 109.9254 162.0466 108.6476 161.5818 105.9161 160.3094 Z" fill="#c99d66"/>
				<path d="M 95.5606 151.8971 C 94.314 151.8463 93.7494 152.9253 93.6595 155.1467 C 93.5677 157.3683 94.0424 158.4678 95.289 158.5205 C 96.5336 158.5732 97.1198 157.5148 97.2116 155.2913 C 97.3015 153.0698 96.8072 151.9469 95.5606 151.8971 Z" fill="#c99d66"/>
				<path d="M 82.0594 159.5488 C 81.2505 160.0067 80.7601 161.0321 80.8246 162.2761 C 80.9125 163.9977 81.9597 164.9019 83.7241 164.813 C 85.4474 164.7231 86.4947 163.6735 86.4204 162.2205 C 86.3325 160.454 84.9883 160.2518 82.0594 159.5488 Z" fill="#c99d66"/>
				<path d="M 56.4833 154.8158 L 42.5797 161.7283 L 53.6913 170.0001 L 52.6811 183.9237 L 68.2495 175.2877 L 58.9276 174.1189 L 56.4833 154.8158 Z" fill="#c99d66"/>
				<path d="M 123.4911 150.1218 C 123.4911 150.1218 110.3885 145.4347 90.2578 145.4347 C 70.0549 145.4347 57.0245 150.1218 57.0245 150.1218 L 59.9514 173.2401 C 59.9514 173.2401 70.1272 168.5588 90.2578 168.5588 C 110.3885 168.5588 120.5622 173.2401 120.5622 173.2401 L 123.4911 150.1218 ZM 69.6485 167.1117 L 69.4726 165.9838 L 70.727 165.7894 C 71.9169 165.603 71.9736 165.4263 71.8153 164.4019 L 70.5101 155.9622 C 70.344 154.8939 70.1389 154.7797 69.0486 154.9467 L 67.6321 155.1672 L 67.4601 154.058 C 70.0353 153.5746 71.6629 152.8169 72.335 151.8531 L 73.1986 151.7194 L 75.0822 163.899 C 75.2424 164.9448 75.3889 165.0688 76.5182 164.894 L 77.7296 164.7075 L 77.9074 165.8373 L 69.6485 167.1117 ZM 83.6108 165.8802 C 80.2482 166.0502 78.308 164.7358 78.1869 162.3679 C 78.1009 160.7089 79.1423 159.4912 81.0395 159.1445 C 79.5096 158.5361 78.5717 157.2511 78.4858 155.592 C 78.3568 153.0591 80.2306 151.0094 83.3235 150.8502 C 86.1039 150.7086 87.919 151.9897 88.0167 153.9008 C 88.0832 155.2073 87.2234 156.3098 85.6291 156.8722 C 87.7627 157.5118 88.7846 158.75 88.8901 160.8251 C 89.0347 163.6891 87.0359 165.7035 83.6108 165.8802 ZM 100.7383 158.0363 C 100.5332 163.0397 97.7939 165.9232 93.89 165.7611 C 91.563 165.6654 90.1386 164.3813 90.2011 162.8229 C 90.2539 161.5564 90.9866 160.9012 92.1726 160.9501 C 93.3566 160.9979 94.0385 161.6492 93.9955 162.6676 C 93.9545 163.6217 93.1749 163.902 93.1613 164.2329 C 93.1456 164.5669 93.4719 164.7456 94.1167 164.7739 C 95.924 164.8462 97.028 162.7936 97.1979 158.6602 C 96.3265 159.6249 95.3281 160.0604 94.0639 160.0087 C 91.5904 159.9061 90.0038 158.0333 90.1113 155.3762 C 90.2227 152.6958 92.4481 150.6881 95.461 150.8121 C 98.9076 150.9518 100.922 153.5931 100.7383 158.0363 ZM 112.8777 155.9534 C 112.6823 157.2491 111.6194 158.1611 109.9469 158.3936 C 111.9125 159.4463 112.6647 160.8612 112.358 162.9156 C 111.932 165.7513 109.5737 167.3313 106.1779 166.8236 C 102.8485 166.3246 101.2073 164.647 101.559 162.3064 C 101.8071 160.662 103.0674 159.6737 104.9978 159.7108 C 103.6183 158.8096 102.9521 157.3663 103.1982 155.7229 C 103.5734 153.2153 105.8184 151.5758 108.882 152.0356 C 111.637 152.4478 113.161 154.0629 112.8777 155.9534 Z" fill="#c99d66"/>
				<path d="M 84.5291 156.5538 C 85.2247 155.8918 85.5568 155.0432 85.508 154.0883 C 85.4337 152.6577 84.5213 151.8717 83.0461 151.9469 C 81.6139 152.0181 80.8011 152.8521 80.8636 154.0756 C 80.9281 155.343 82.1063 155.9905 84.5291 156.5538 Z" fill="#c99d66"/>
				<path d="M 108.3916 153.0562 C 106.9731 152.8423 106.0138 153.4956 105.8321 154.7094 C 105.6445 155.9631 106.6683 156.8302 108.9328 157.8634 C 109.7456 157.3536 110.238 156.587 110.3806 155.6438 C 110.5936 154.224 109.8531 153.272 108.3916 153.0562 Z" fill="#c99d66"/>
			</g>
			<g>
				<path d="M 123.0925 57.5609 L 123.0925 101.8279 C 123.0925 101.8279 121.3946 124.8357 90.2266 137.865 L 90.2266 137.9001 C 90.2109 137.8953 90.1972 137.8894 90.1855 137.8845 C 90.1699 137.8894 90.1582 137.8953 90.1445 137.9001 L 90.1445 137.865 C 58.9706 124.8357 57.2766 101.8279 57.2766 101.8279 L 57.2766 57.5609 L 123.0925 57.5609 L 123.0925 57.5609 ZM 124.5579 56.0972 L 123.0925 56.0972 L 57.2766 56.0972 L 55.8131 56.0972 L 55.8131 57.5609 L 55.8131 101.8279 L 55.8131 101.8824 L 55.817 101.9352 C 55.8347 102.1852 56.3153 108.1144 60.7584 115.7017 C 63.3473 120.1193 66.7567 124.204 70.8931 127.8364 C 75.8207 132.1653 81.8034 135.8632 88.683 138.8326 L 90.1914 139.4723 L 91.69 138.8326 C 98.5695 135.8632 104.5484 132.1653 109.478 127.8364 C 113.6143 124.204 117.0238 120.1193 119.6127 115.7017 C 124.0518 108.1144 124.5345 102.1852 124.554 101.9352 L 124.5579 101.8824 L 124.5579 101.8279 L 124.5579 57.5609 L 124.5579 56.0972 L 124.5579 56.0972 Z" fill="#c99d66"/>
			</g>
		</g>
		<g>
			<g>
				<path d="M 19.2837 14.7948 C 19.2837 14.6669 19.1802 14.5634 19.0512 14.5634 C 18.9457 14.5634 18.8597 14.6376 18.8324 14.7323 L 18.8285 14.7323 L 11.2885 38.5067 L 11.2885 38.5067 C 11.1615 38.8632 11.0892 39.2469 11.0892 39.6462 C 11.0892 41.5143 12.6035 43.0308 14.4753 43.0308 C 15.036 43.0308 15.5616 42.8911 16.0286 42.6519 L 16.0384 42.6489 L 16.0384 42.647 C 16.0403 42.647 16.0423 42.647 16.0423 42.644 L 16.1028 42.1051 L 16.687 37.0859 L 16.687 37.0859 L 19.2837 14.7948 Z" fill="#c99d66"/>
			</g>
			<g>
				<path d="M 18.045 15.3503 C 18.0489 15.3503 18.0489 15.3503 18.0489 15.3503 L 18.0606 15.3113 L 18.0547 15.3083 C 18.0587 15.2927 18.0645 15.2771 18.0645 15.2605 C 18.0645 15.1317 17.961 15.0272 17.832 15.0272 C 17.7441 15.0272 17.6698 15.078 17.6327 15.1512 L 17.6288 15.1512 L 6.0189 33.0707 C 5.89 33.2426 5.7688 33.4222 5.6673 33.6145 L 5.6594 33.6282 L 5.6594 33.6311 C 5.382 34.1624 5.2237 34.7629 5.2237 35.4025 C 5.2237 37.5137 6.9373 39.2274 9.0533 39.2274 C 9.534 39.2274 9.9892 39.1356 10.4132 38.9745 L 10.419 38.9764 L 10.419 38.9716 C 10.4269 38.9716 10.4327 38.9686 10.4386 38.9667 L 10.843 37.7412 L 10.843 37.7412 L 11.7828 35.0216 L 18.045 15.3503 Z" fill="#c99d66"/>
			</g>
			<g>
				<path d="M 8.6625 21.0433 L 16.0266 12.1945 C 16.0364 12.1866 16.0423 12.1749 16.0501 12.1642 L 16.0677 12.1437 L 16.0677 12.1407 C 16.0872 12.1056 16.1028 12.0675 16.1028 12.0226 C 16.1028 11.8956 15.9993 11.7921 15.8703 11.7921 C 15.8098 11.7921 15.759 11.8175 15.7179 11.8527 L 15.716 11.8527 L 3.3226 21.1205 L 3.3226 21.1234 C 2.0526 21.9934 1.2203 23.4513 1.2203 25.1074 C 1.2203 26.3954 1.7283 27.5583 2.545 28.4275 L 8.6684 21.0472 C 8.6664 21.0472 8.6645 21.0433 8.6625 21.0433 Z" fill="#c99d66"/>
			</g>
			<g>
				<path d="M 30.0905 38.5067 L 22.5506 14.7323 L 22.5486 14.7323 C 22.5193 14.6376 22.4333 14.5634 22.3279 14.5634 C 22.1989 14.5634 22.0953 14.6669 22.0953 14.7948 L 24.694 37.0859 L 24.694 37.0859 L 25.2762 42.1051 L 25.3348 42.644 C 25.3368 42.647 25.3407 42.647 25.3407 42.647 L 25.3407 42.6489 L 25.3505 42.6519 C 25.8174 42.8911 26.343 43.0308 26.9057 43.0308 C 28.7756 43.0308 30.2918 41.5143 30.2918 39.6462 C 30.2918 39.2469 30.2195 38.8632 30.0905 38.5067 L 30.0905 38.5067 Z" fill="#c99d66"/>
			</g>
			<g>
				<path d="M 35.7216 33.6282 L 35.7118 33.6145 C 35.6102 33.4222 35.491 33.2426 35.3601 33.0707 L 23.7502 15.1512 L 23.7483 15.1512 C 23.7112 15.078 23.633 15.0272 23.5451 15.0272 C 23.4181 15.0272 23.3126 15.1317 23.3126 15.2605 C 23.3126 15.2771 23.3204 15.2927 23.3243 15.3083 L 23.3204 15.3113 L 23.3321 15.3503 L 23.3321 15.3503 L 29.5982 35.0216 L 30.536 37.7412 L 30.536 37.7412 L 30.9405 38.9667 C 30.9483 38.9686 30.9522 38.9716 30.96 38.9716 L 30.96 38.9764 L 30.9659 38.9745 C 31.3879 39.1356 31.8451 39.2274 32.3258 39.2274 C 34.4398 39.2274 36.1553 37.5137 36.1553 35.4025 C 36.1553 34.7629 35.9971 34.1624 35.7216 33.6311 L 35.7216 33.6282 Z" fill="#c99d66"/>
			</g>
			<g>
				<path d="M 38.0565 21.1234 L 38.0565 21.1205 L 25.6631 11.8527 L 25.6631 11.8527 C 25.6201 11.8175 25.5693 11.7921 25.5087 11.7921 C 25.3798 11.7921 25.2762 11.8956 25.2762 12.0226 C 25.2762 12.0675 25.2938 12.1056 25.3114 12.1407 L 25.3114 12.1437 L 25.3309 12.1642 C 25.3368 12.1749 25.3446 12.1866 25.3524 12.1945 L 32.7185 21.0433 C 32.7165 21.0433 32.7146 21.0472 32.7126 21.0472 L 38.8341 28.4275 C 39.6527 27.5583 40.1588 26.3954 40.1588 25.1074 C 40.1588 23.4513 39.3245 21.9934 38.0565 21.1234 Z" fill="#c99d66"/>
			</g>
			<g>
				<path d="M 37.6188 27.9099 L 26.6947 14.7948 L 24.8854 12.2979 C 24.7624 12.1749 24.6842 12.0099 24.6842 11.8224 C 24.6842 11.4542 24.9832 11.1554 25.3524 11.1554 C 25.4814 11.1554 25.6025 11.1935 25.7041 11.2589 L 31.4094 15.5144 L 39.0021 21.0931 L 39.2112 21.2474 C 39.2112 21.2474 39.2112 21.2474 39.2112 21.2455 L 39.217 21.2474 L 39.2131 21.2396 C 39.4867 20.6586 39.6469 20.0082 39.6469 19.3218 C 39.6469 17.9918 39.0705 16.7994 38.1561 15.9734 L 38.1561 15.9646 C 38.1561 15.9646 38.1463 15.9597 38.1366 15.9548 C 37.5875 15.4617 35.6923 14.6786 35.4207 14.5448 C 29.5005 11.6124 24.4497 9.8899 23.7268 9.6243 C 23.7034 9.6184 23.6858 9.6135 23.6682 9.6018 C 23.6604 9.5989 23.6526 9.5959 23.6526 9.5959 L 23.6545 9.594 C 23.59 9.551 23.5451 9.4827 23.5451 9.3997 C 23.5451 9.2727 23.6506 9.1693 23.7796 9.1693 C 23.7893 9.1693 23.7971 9.1722 23.8069 9.176 L 23.8069 9.1722 C 23.8225 9.176 23.8401 9.1809 23.8577 9.1838 C 23.8616 9.1848 23.8655 9.1848 23.8714 9.1887 C 25.4071 9.5911 26.9331 10.092 28.379 10.6223 C 29.3012 10.092 32.3648 8.5092 35.4891 8.851 C 35.6161 8.851 35.7216 8.9574 35.7216 9.0853 C 35.7216 9.2141 35.6161 9.3157 35.4891 9.3157 C 35.4891 9.3157 32.105 8.7699 29.4458 11.0245 C 32.4919 12.2062 35.0788 13.4707 36.4855 14.1942 C 38.0037 13.4736 39.0568 11.9337 39.0568 10.1399 C 39.0568 7.723 37.1401 5.7555 34.7427 5.6637 L 34.7231 5.6578 C 34.7231 5.6578 30.2722 5.2545 26.7006 6.6665 C 23.8323 7.8011 21.6049 7.6547 20.8351 7.5513 L 20.544 7.5513 C 19.7741 7.6547 17.5467 7.8011 14.6785 6.6665 C 11.1048 5.2545 6.6579 5.6578 6.6579 5.6578 L 6.6344 5.6637 C 4.239 5.7555 2.3222 7.723 2.3222 10.1399 C 2.3222 11.9337 3.3734 13.4736 4.8916 14.1942 C 6.3003 13.4707 8.8872 12.2062 11.9333 11.0245 C 9.276 8.7699 5.8919 9.3157 5.8919 9.3157 C 5.761 9.3157 5.6594 9.2141 5.6594 9.0853 C 5.6594 8.9574 5.761 8.851 5.8919 8.851 C 9.0123 8.5092 12.0779 10.092 13.0001 10.6223 C 14.4479 10.092 15.9739 9.5911 17.5077 9.1887 C 17.5135 9.1848 17.5174 9.1848 17.5233 9.1838 C 17.5389 9.1809 17.5565 9.176 17.5721 9.1722 L 17.5721 9.176 C 17.5819 9.1722 17.5897 9.1693 17.5995 9.1693 C 17.7304 9.1693 17.832 9.2727 17.832 9.3997 C 17.832 9.4827 17.7871 9.551 17.7245 9.594 L 17.7265 9.5959 C 17.7265 9.5959 17.7187 9.5989 17.7109 9.6018 C 17.6933 9.6135 17.6737 9.6184 17.6542 9.6243 C 16.9313 9.8899 11.8805 11.6124 5.9584 14.5448 C 5.6887 14.6786 3.7935 15.4617 3.2425 15.9548 C 3.2327 15.9597 3.2249 15.9646 3.2249 15.9646 L 3.2249 15.9734 C 2.3105 16.7994 1.7341 17.9918 1.7341 19.3218 C 1.7341 20.0082 1.8924 20.6586 2.1659 21.2396 L 2.164 21.2474 L 2.1659 21.2455 C 2.1659 21.2474 2.1698 21.2474 2.1698 21.2474 L 2.3769 21.0931 L 9.9716 15.5144 L 15.6769 11.2589 C 15.7785 11.1935 15.8977 11.1554 16.0266 11.1554 C 16.3959 11.1554 16.6949 11.4542 16.6949 11.8224 C 16.6949 12.0099 16.6167 12.1749 16.4956 12.2979 L 14.6863 14.7948 L 3.7622 27.9099 L 3.7642 27.9148 C 3.0745 28.6833 2.6505 29.6969 2.6505 30.8101 C 2.6505 32.2386 3.3441 33.5002 4.405 34.2932 L 5.7024 32.3304 L 9.2467 27.0936 L 10.1689 25.7334 L 17.5135 14.0262 L 17.5174 14.0272 C 17.7343 13.6699 18.1251 13.4248 18.5745 13.4248 C 19.2564 13.4248 19.8093 13.9794 19.8093 14.6591 C 19.8093 14.7059 19.7995 14.7489 19.7976 14.7948 L 19.7976 14.7948 L 19.7937 14.8134 C 19.7917 14.8505 19.7917 14.8817 19.7839 14.9159 L 16.9195 40.3318 C 16.9176 40.3523 16.9117 40.3777 16.9117 40.4021 L 16.8941 40.5632 L 16.902 40.571 C 16.9 40.6355 16.8941 40.7 16.8941 40.7615 C 16.8941 42.8589 18.594 44.557 20.6886 44.557 C 22.787 44.557 24.4868 42.8589 24.4868 40.7615 C 24.4868 40.7 24.479 40.6355 24.4771 40.571 L 24.4868 40.5632 L 24.4673 40.4021 C 24.4654 40.3777 24.4634 40.3523 24.4595 40.3318 L 21.5971 14.9159 C 21.5893 14.8817 21.5893 14.8505 21.5854 14.8134 L 21.5834 14.7948 L 21.5834 14.7948 C 21.5776 14.7489 21.5697 14.7059 21.5697 14.6591 C 21.5697 13.9794 22.1207 13.4248 22.8065 13.4248 C 23.2559 13.4248 23.6447 13.6699 23.8616 14.0272 L 23.8655 14.0262 L 31.2101 25.7334 L 32.1323 27.0936 L 35.6766 32.3304 L 36.976 34.2932 C 38.0369 33.5002 38.7305 32.2386 38.7305 30.8101 C 38.7305 29.6969 38.3065 28.6833 37.6149 27.9148 L 37.6188 27.9099 Z" fill="#c99d66"/>
			</g>
		</g>
	</g>
</svg>