<svg xmlns="http://www.w3.org/2000/svg" xmlns:xlink="http://www.w3.org/1999/xlink" x="0px" y="0px" viewBox="0 0 100 125" xml:space="preserve"> <g> <path fill="none" d="M20.262,33.371c-7.568,3.782-10.089,13.866-5.766,22.514c4.323,8.642,13.869,12.606,21.432,9.002 c7.563-3.783,10.085-13.868,5.763-22.511C37.37,33.551,27.824,29.589,20.262,33.371z"></path> <polygon fill="none" points="78.071,74.613 89.775,67.229 89.775,63.989 78.071,71.19 "></polygon> <path fill="none" d="M58.441,22.386c-7.384-5.944-19.812-5.225-32.24,1.439c6.844,0.179,14.048,3.242,19.272,9.186l0.539,0.721 c0.181,0.178,0.362,0.359,0.541,0.719c0.179,0,0.179,0.184,0.359,0.184L73.388,67.05L91.76,56.604 C87.976,52.462,67.805,29.949,58.441,22.386z M62.581,49.941l-6.302-7.925l10.804-8.465l6.123,7.926L62.581,49.941z"></path> <path d="M60.782,19.505c-9.905-7.565-28.096-7.205-45.025,6.662l-2.343,1.803c-0.178,0.179-0.359,0.179-0.359,0.36 c-9.905,7.743-10.804,22.869-1.978,34.038c8.823,11.166,23.951,13.867,33.677,6.123c1.98-1.442,3.961-5.044,5.222-7.206 l20.35,24.135l24.315-16.21L95,54.806C93.559,53.182,71.228,27.786,60.782,19.505z M35.928,64.888 c-7.562,3.603-17.109-0.36-21.432-9.002c-4.323-8.647-1.802-18.732,5.766-22.514c7.562-3.782,17.108,0.179,21.429,9.005 C46.012,51.02,43.491,61.104,35.928,64.888z M89.775,67.229l-11.704,7.384V71.19l11.704-7.202V67.229z M73.388,67.05L46.913,34.635 c-0.18,0-0.18-0.184-0.359-0.184c-0.179-0.36-0.36-0.541-0.541-0.719l-0.539-0.721c-5.224-5.944-12.427-9.006-19.272-9.186 c12.428-6.664,24.856-7.383,32.24-1.439c9.364,7.562,29.535,30.076,33.318,34.218L73.388,67.05z"></path> <polygon points="56.279,42.016 62.581,49.941 73.207,41.477 67.083,33.551 "></polygon> </g> <text x="0" y="115" fill="#000000" font-size="5px" font-weight="bold" font-family="'Helvetica Neue', Helvetica, Arial-Unicode, Arial, Sans-serif">Created by Valery</text> <text x="0" y="120" fill="#000000" font-size="5px" font-weight="bold" font-family="'Helvetica Neue', Helvetica, Arial-Unicode, Arial, Sans-serif">from the Noun Project</text> </svg>