<svg xmlns="http://www.w3.org/2000/svg" xmlns:xlink="http://www.w3.org/1999/xlink" x="0px" y="0px" viewBox="0 0 100 125" xml:space="preserve"> <g> <polygon points="19.637,71.896 18.24,73.576 26.655,81.707 28.052,80.306 51.03,60.407 39.822,49.194 "></polygon> <path d="M90.833,54.242c-0.559,0.558-0.838,1.12-1.397,1.68c-0.284,0.559-0.846,1.12-1.401,1.684 c-1.401,1.399-3.369,2.239-5.333,2.239c-1.96,0-3.92-0.84-5.32-2.239c-1.401-1.405-2.248-3.085-2.248-5.049 c0-2.243,0.571-3.923,1.968-5.606c0.559-0.561,1.118-0.84,1.681-1.401c0.559-0.558,1.122-0.84,1.681-1.401 c0.558-0.838,1.401-1.962,1.959-2.804c-3.081,0-5.879,1.123-8.131,3.364c-4.478,4.484-4.203,11.771,0.28,15.976 c4.49,4.205,11.504,4.205,15.978-0.279c2.247-2.241,3.361-5.326,3.085-8.412C92.513,52.557,91.675,53.4,90.833,54.242z"></path> <path d="M91.675,9.114l-1.125-0.84C86.351,3.79,79.342,4.069,75.414,8.556L41.782,46.391l11.491,11.775l38.123-33.634 C96.154,20.604,96.154,13.601,91.675,9.114z"></path> <path d="M83.82,41.346c-0.555,1.405-1.397,2.804-2.514,3.923c-0.563,0.281-1.122,0.842-1.684,1.403 c-0.559,0.563-0.838,0.842-1.401,1.403c-1.118,1.12-1.676,2.802-1.676,4.201c0,1.684,0.558,3.365,1.96,4.484 c1.117,1.126,2.518,1.684,4.199,1.684c1.68,0,3.081-0.838,4.486-1.964c0.284-0.559,0.847-0.84,1.126-1.401 c0.559-0.559,0.838-1.12,1.397-1.681c1.122-1.124,2.523-2.243,3.923-2.804c-0.563-2.239-1.684-4.484-3.361-6.165 C88.315,42.751,86.351,41.627,83.82,41.346z"></path> <polygon points="14.321,78.063 22.16,85.351 24.411,83.667 16.56,75.54 "></polygon> <path d="M12.07,80.027c-1.676-0.84-3.915-0.279-5.6,1.399c-1.96,1.961-1.96,5.045,0,7.007l4.762,5.045 c2.248,1.966,5.329,1.966,7.293,0c1.397-1.401,1.676-3.642,1.397-5.606L12.07,80.027z"></path> </g> <text x="0" y="115" fill="#000000" font-size="5px" font-weight="bold" font-family="'Helvetica Neue', Helvetica, Arial-Unicode, Arial, Sans-serif">Created by Valery</text> <text x="0" y="120" fill="#000000" font-size="5px" font-weight="bold" font-family="'Helvetica Neue', Helvetica, Arial-Unicode, Arial, Sans-serif">from the Noun Project</text> </svg>