<svg xmlns="http://www.w3.org/2000/svg" xmlns:xlink="http://www.w3.org/1999/xlink" version="1.1" >

    
    <!-- Reasons -->
    
    
    <symbol id="icon-delivery" viewBox="0 0 61.8 61.8">
        
        <path d="M30.89,0A30.88,30.88,0,0,0,4.74,14.5L3.57,9.2a.72.72,0,0,0-.84-.57h0a.72.72,0,0,0-.52.87h0L3.61,16a.72.72,0,0,0,.7.56h7.18a.72.72,0,1,0,0-1.44H6.06a29.43,29.43,0,0,1,54.26,15.8.74.74,0,1,0,1.48,0h0A30.94,30.94,0,0,0,30.89,0Zm0,10.8A20.11,20.11,0,1,0,51,30.91,20.12,20.12,0,0,0,30.89,10.8Zm-3.32,1.75A13.87,13.87,0,0,0,22.25,19c-.28.66-.52,1.35-.74,2a28.8,28.8,0,0,1-4.6-2.54A18.62,18.62,0,0,1,27.57,12.55Zm6.64,0a18.62,18.62,0,0,1,10.66,6,28.8,28.8,0,0,1-4.6,2.54c-.22-.69-.46-1.39-.74-2A13.87,13.87,0,0,0,34.21,12.55Zm-4,.31V23a23.28,23.28,0,0,1-7.34-1.39,20.33,20.33,0,0,1,.72-2A11.54,11.54,0,0,1,30.17,12.86Zm1.44,0a11.54,11.54,0,0,1,6.62,6.73,20.33,20.33,0,0,1,.72,2A23.28,23.28,0,0,1,31.61,23ZM16,19.66a30,30,0,0,0,5.12,2.81,34,34,0,0,0-1,7.72H12.23A18.61,18.61,0,0,1,16,19.66Zm29.81,0a18.61,18.61,0,0,1,3.75,10.53H41.66a34,34,0,0,0-1-7.72A30,30,0,0,0,45.8,19.66ZM22.45,23a24.83,24.83,0,0,0,7.72,1.44v5.77h-8.6A33.16,33.16,0,0,1,22.45,23Zm16.88,0a33.16,33.16,0,0,1,.88,7.21h-8.6V24.42A24.83,24.83,0,0,0,39.33,23ZM.63,30.17a.72.72,0,0,0-.63.74A30.88,30.88,0,0,0,57,47.32l1.17,5.3a.72.72,0,1,0,1.39-.31l-1.44-6.47a.72.72,0,0,0-.7-.56H50.15a.72.72,0,0,0,.13,1.44h5.43A29.44,29.44,0,0,1,1.44,30.91a.72.72,0,0,0-.69-.75Zm11.61,1.46h7.88a34.08,34.08,0,0,0,1,7.72A29.71,29.71,0,0,0,16,42.16,18.59,18.59,0,0,1,12.23,31.63Zm9.32,0h8.62V37.4a25,25,0,0,0-7.72,1.44A33.06,33.06,0,0,1,21.55,31.63Zm10.06,0h8.62a33.06,33.06,0,0,1-.9,7.21,25,25,0,0,0-7.72-1.44Zm10.06,0h7.88a18.59,18.59,0,0,1-3.73,10.53,29.71,29.71,0,0,0-5.14-2.81A34.08,34.08,0,0,0,41.66,31.63ZM29.83,38.84h.34V49a11.59,11.59,0,0,1-6.62-6.76,20,20,0,0,1-.72-2A23.35,23.35,0,0,1,29.83,38.84Zm1.77,0a23.41,23.41,0,0,1,7.34,1.41,20,20,0,0,1-.72,2A11.59,11.59,0,0,1,31.61,49Zm-10.1,1.93c.22.69.46,1.36.74,2a13.92,13.92,0,0,0,5.32,6.51,18.62,18.62,0,0,1-10.69-6A28.35,28.35,0,0,1,21.51,40.77Zm18.77,0a28.35,28.35,0,0,1,4.62,2.51,18.62,18.62,0,0,1-10.69,6,13.92,13.92,0,0,0,5.32-6.51C39.82,42.13,40.05,41.46,40.27,40.77Z"/>
    </symbol>
    
    <symbol id="icon-shipping" viewBox="0 0 72.14 45.7">
    
        <path class="cls-1" d="M23.48,37.69a.83.83,0,0,0-1,.48A9.12,9.12,0,1,1,8.36,27.77a.8.8,0,0,0-1-1.28A10.7,10.7,0,1,0,24,38.57C24.12,38.33,23.88,37.85,23.48,37.69Z"/>
        <path class="cls-1" d="M70.3,29.29a10.34,10.34,0,0,0-6.72-4.64,11.09,11.09,0,0,0-5.84.4l-1-2a12.24,12.24,0,0,1,4.32-.72h0a12.79,12.79,0,0,1,6.4,1.84.82.82,0,1,0,.8-1.44,15.07,15.07,0,0,0-7.2-2h0a14.37,14.37,0,0,0-5,.88l-1.92-4.08C58.45,15.93,64.7,17,67.9,18a.81.81,0,0,0,.56-1.52L61.33,13l-.08-3.44A1.14,1.14,0,0,0,61.09,9L53.81.4a.9.9,0,0,0-.88-.24.77.77,0,0,0-.56.72l-.08,5.28a.76.76,0,0,0,.8.8.8.8,0,0,0,.8-.8L54,3l5.76,6.8.08,3.6a.77.77,0,0,0,.48.72l2.16,1c-3.28-.32-6.88-.24-9.6,1.12h0c-4.4,2.08-6.64,6.72-7.28,8.24l-2.32.08a.72.72,0,0,0-.72.88.79.79,0,0,0,.8.72h.08l2.8-.16a.77.77,0,0,0,.72-.56c0-.08,1.92-5,6-7.44l1.92,4.08a14.69,14.69,0,0,0-6.16,6.64.79.79,0,0,0,.4,1,.48.48,0,0,0,.32.08.77.77,0,0,0,.72-.48,12.61,12.61,0,0,1,5.36-5.92l1,2a7,7,0,0,1-.8.48A10.34,10.34,0,0,0,51,32.73a10.72,10.72,0,1,0,21,4.48A10.87,10.87,0,0,0,70.3,29.29Zm-.08,7.76a9,9,0,0,1-4,5.76,9.09,9.09,0,0,1-6.88,1.28,9,9,0,0,1-5.76-4,9.09,9.09,0,0,1-1.28-6.88,9,9,0,0,1,4-5.76,2,2,0,0,1,.56-.32l2,4.32a.77.77,0,0,0,.72.48.48.48,0,0,0,.32-.08.79.79,0,0,0,.4-1l-1.84-4.4a8.18,8.18,0,0,1,4.8-.24,9.08,9.08,0,0,1,7,10.88Z"/>
        <circle class="cls-1" cx="61.33" cy="34.89" r="1.6"/><circle class="cls-1" cx="13.56" cy="34.89" r="1.6"/>
        <path class="cls-1" d="M4.35,16.33a.8.8,0,1,0,0-1.6H1.15a.8.8,0,1,0,0,1.6h1L.11,20.25a.81.81,0,0,0,.32,1.12.72.72,0,0,0,.4.08.84.84,0,0,0,.72-.4l2.64-4.72Z"/><path class="cls-1" d="M46.59,24.9a.79.79,0,0,0-1,.4c0,.08-3.35,8.47-4.15,10.24-.56,1.12-2.56,1.44-3.2,1.52H29L16.28,27.77a.8.8,0,0,0-1,1.28l3.6,2.64-2.24.88a.83.83,0,0,0-.48,1,.77.77,0,0,0,.72.48.6.6,0,0,0,.32-.08l3.2-1.28,7.76,5.6a1.14,1.14,0,0,0,.48.16h9.44c.4,0,3.6-.32,4.64-2.4.88-1.76,4.15-10.24,4.15-10.32C47.15,25.54,47,25.06,46.59,24.9Z"/><path class="cls-1" d="M18.68,11.36c2.88.48,6.08,1,6.64,1.2.32.16.56.72.88,1.6.16.4.32.88.56,1.44.8,1.84,4.16,2.24,6.08,2.24.64,0,1.2-.08,1.36-.08,2.48-.72,4.4-3.28,4.88-3.92l3-2.08,4.8,1.6a.78.78,0,0,0,.72-.08l2.56-1.76,2.88.64a.82.82,0,1,0,.32-1.6l-3.2-.72a.62.62,0,0,0-.64.16l-2.64,1.68L42,10.08a.78.78,0,0,0-.72.08L38,12.56l-.24.24c-.48.8-2.24,2.88-4,3.36-.8.16-5-.08-5.52-1.2a5.58,5.58,0,0,1-.48-1.36C27.32,12.4,27,11.44,26,11s-6-1.2-7-1.36a.75.75,0,0,0-.88.64A.7.7,0,0,0,18.68,11.36Z"/><path class="cls-1" d="M41.57,7l5.28-1.12,1.52,2.88a.84.84,0,0,0,.72.4.72.72,0,0,0,.4-.08.81.81,0,0,0,.32-1.12L48,4.56a.8.8,0,0,0-.88-.4l-2.08.48V.8a.8.8,0,1,0-1.6,0V5l-2.16.48a.83.83,0,0,0-.64,1A.68.68,0,0,0,41.57,7Z"/><path class="cls-1" d="M2.59,11.36H14.76A1.78,1.78,0,0,0,16.52,9.6V2.72A1.78,1.78,0,0,0,14.76,1H2.59A1.78,1.78,0,0,0,.83,2.72V9.6A1.78,1.78,0,0,0,2.59,11.36ZM2.43,2.72a.17.17,0,0,1,.16-.16H14.76a.17.17,0,0,1,.16.16V9.6a.17.17,0,0,1-.16.16H2.59a.17.17,0,0,1-.16-.16Z"/><path class="cls-1" d="M20.6,26.65a2.45,2.45,0,0,0,1.6-.56,2.53,2.53,0,0,0,1-1.76l1-6.64a2.89,2.89,0,0,0-.48-2,2.53,2.53,0,0,0-1.76-1L9.4,12.88a2.89,2.89,0,0,0-2,.48,2.53,2.53,0,0,0-1,1.76l-1,6.64a2.89,2.89,0,0,0,.48,2,2.53,2.53,0,0,0,1.76,1L20.2,26.57A.72.72,0,0,0,20.6,26.65ZM7.16,22.81a1.35,1.35,0,0,1-.24-.8l1-6.64a1,1,0,0,1,.4-.72.91.91,0,0,1,.64-.24h.16l12.56,1.84a1,1,0,0,1,.72.4,1.35,1.35,0,0,1,.24.8l-1,6.64a1,1,0,0,1-.4.72,1.35,1.35,0,0,1-.8.24L7.88,23.29A1.44,1.44,0,0,1,7.16,22.81Z"/><path class="cls-1" d="M32.36,30.33,26,24.89a.77.77,0,0,0-1.12.08.85.85,0,0,0,.08,1.12l6.64,5.6a.59.59,0,0,0,.48.16h6.56a.8.8,0,0,0,0-1.6l-6.24.08Z"/>
    </symbol>
    <symbol id="icon-moneyback" viewBox="0 0 82.02 49.12">
        <path class="cls-1" d="M.84,45.12a119.46,119.46,0,0,1,12.89,2.09A74.39,74.39,0,0,0,28,49.12h.19c5.49,0,13-4.67,19.68-8.79,2.74-1.7,5.32-3.3,7.28-4.23l.15,0H81.08a.93.93,0,0,0,.93-.93V.93A.93.93,0,0,0,81.08,0H25.42a.94.94,0,0,0-.93.93V16l-.33,0a40,40,0,0,0-8.28.95C12.16,18.17,1.07,22.37.6,22.55a.93.93,0,0,0-.54,1.2,1,1,0,0,0,1.21.54c.1,0,11.48-4.35,15.16-5.51,2.7-.84,11.47-1,17.28-1.15l4.21-.1h.31l0,.31a5.39,5.39,0,0,1-.55,3.41c-1,1.71-3,2.88-6.06,3.46-9.92,1.89-13.6,4.75-13.75,4.87a.94.94,0,0,0-.15,1.3,1,1,0,0,0,1.31.16A19.63,19.63,0,0,1,24,28.67l.47-.17v6.64a.94.94,0,0,0,.93.93H51.28l-1.08.65c-1,.62-2.14,1.3-3.3,2l-.13.08c-6.07,3.76-13.61,8.44-18.54,8.44H28a71.6,71.6,0,0,1-13.9-1.87A122.82,122.82,0,0,0,1,43.26H.93a.93.93,0,0,0-.09,1.86ZM80.15,34.2H72.9L80.15,27Zm0-32.33V9.14L72.88,1.87Zm-53.8,0h7.27L26.35,9.14Zm0,32.33V27.9l.25-.07c1.69-.49,3.51-.93,5.41-1.29,3.63-.69,6.1-2.17,7.34-4.39a7.52,7.52,0,0,0,.45-5.92.92.92,0,0,0-.85-.6v-.34h0l-.06.34c-1.34.06-3.14.1-5.23.14s-4.63.1-7,.18h-.36V11.78l9.91-9.91h34l9.91,9.91V24.31L70.26,34.2Z"/><path class="cls-1" d="M54.63,27H44.57l.21-1.34L51,18.52l1.18-1.39a9.28,9.28,0,0,0,2.35-4.57,4.16,4.16,0,0,0-.49-2.79A2.39,2.39,0,0,0,52,8.65a3.37,3.37,0,0,0-2.7,1.16,6.38,6.38,0,0,0-1.44,3.33H46.42a7.41,7.41,0,0,1,1.86-4.27,4.8,4.8,0,0,1,3.8-1.63,4.11,4.11,0,0,1,2.31.7,3.83,3.83,0,0,1,1.4,1.83,5.83,5.83,0,0,1,.31,2.63,11.07,11.07,0,0,1-2.89,5.68l-6.58,7.53h8.21Z"/><path class="cls-1" d="M69.52,12.44a5.59,5.59,0,0,1-3.36,4.64A4.16,4.16,0,0,1,67.87,19a5.5,5.5,0,0,1,.43,2.75,6.25,6.25,0,0,1-1.83,4.05,5.27,5.27,0,0,1-4,1.51,4.17,4.17,0,0,1-3.33-1.54,5.13,5.13,0,0,1-1-3.8A5.65,5.65,0,0,1,59.31,19,6.55,6.55,0,0,1,62,17a3.72,3.72,0,0,1-1.16-1.24,5.09,5.09,0,0,1-.6-3A6.25,6.25,0,0,1,61.9,8.75a4.71,4.71,0,0,1,3.67-1.49,3.76,3.76,0,0,1,3.08,1.52A5.06,5.06,0,0,1,69.52,12.44Zm-2.69,9.29a4.06,4.06,0,0,0-.65-2.83,2.77,2.77,0,0,0-2.28-1.19A3.69,3.69,0,0,0,61,18.89,4.93,4.93,0,0,0,59.67,22a3.88,3.88,0,0,0,.62,2.82,2.78,2.78,0,0,0,2.32,1.12,3.66,3.66,0,0,0,2.89-1.16A4.91,4.91,0,0,0,66.84,21.73Zm1.2-9.3a3.91,3.91,0,0,0-.56-2.65,2.39,2.39,0,0,0-2-1.12,3.16,3.16,0,0,0-2.54,1.1,4.84,4.84,0,0,0-1.22,2.91,3.77,3.77,0,0,0,.56,2.63,2.38,2.38,0,0,0,2,1,3.19,3.19,0,0,0,2.56-1.1A4.65,4.65,0,0,0,68,12.42Z"/>
    </symbol>
    
	<!-- Common -->
	
	<symbol id="icon-menu" viewBox="0 0 40 40">
		<title>menu</title>
		<path d="M 12.0001 14 L 36 14 C 36.5523 14 37 14.4477 37 15 C 37 15.5523 36.5523 16 36 16 L 12.0001 16 C 11.4477 16 11 15.5523 11 15 C 11 14.4477 11.4477 14 12.0001 14 Z" />
		<path d="M 5.0001 24 L 29 24 C 29.5524 24 30.0001 24.4477 30.0001 25 C 30.0001 25.5523 29.5524 26 29 26 L 5.0001 26 C 4.4477 26 4 25.5523 4 25 C 4 24.4477 4.4477 24 5.0001 24 Z" />
		<path d="M 9.0001 19 L 33 19 C 33.5522 19 34.0001 19.4477 34.0001 20 C 34.0001 20.5523 33.5522 21 33 21 L 9.0001 21 C 8.4477 21 8 20.5523 8 20 C 8 19.4477 8.4477 19 9.0001 19 Z" />
	</symbol>
	
	
	<symbol id="icon-close" viewBox="0 0 40 40">
		<title>menu</title>
		<path d="M 11.6231 27.5769 L 26.5769 12.6231 C 26.9211 12.2789 27.6029 12.4029 28.1 12.9 C 28.5971 13.3971 28.7211 14.0789 28.3769 14.4231 L 13.4231 29.3769 C 13.0789 29.7211 12.3971 29.5971 11.9 29.1 C 11.4029 28.6029 11.2789 27.9211 11.6231 27.5769 Z" />
		<path d="M 13.0945 12.2045 L 28.7955 27.9056 C 29.1569 28.2669 29.0267 28.9829 28.5048 29.5048 C 27.9829 30.0267 27.2669 30.1569 26.9056 29.7955 L 11.2045 14.0945 C 10.8431 13.7331 10.9733 13.0171 11.4952 12.4952 C 12.0171 11.9733 12.7331 11.8431 13.0945 12.2045 Z" />
	</symbol>
	
	
	<symbol id="icon-home" viewBox="0 0 20 20">
		<title>home</title>
		<path class="path1" d="M18.672 11h-1.672v6c0 0.445-0.194 1-1 1h-4v-6h-4v6h-4c-0.806 0-1-0.555-1-1v-6h-1.672c-0.598 0-0.47-0.324-0.060-0.748l8.024-8.032c0.195-0.202 0.451-0.302 0.708-0.312 0.257 0.010 0.513 0.109 0.708 0.312l8.023 8.031c0.411 0.425 0.539 0.749-0.059 0.749z"></path>
	</symbol>
	
	<symbol id="icon-checkmark" viewBox="0 0 32 32">
		<title>checkmark</title>
		<path class="path1" d="M27 4l-15 15-7-7-5 5 12 12 20-20z"></path>
	</symbol>
	
	<symbol id="icon-plus" viewBox="0 0 32 32">
		<title>plus</title>
		<path class="path1" d="M31 12h-11v-11c0-0.552-0.448-1-1-1h-6c-0.552 0-1 0.448-1 1v11h-11c-0.552 0-1 0.448-1 1v6c0 0.552 0.448 1 1 1h11v11c0 0.552 0.448 1 1 1h6c0.552 0 1-0.448 1-1v-11h11c0.552 0 1-0.448 1-1v-6c0-0.552-0.448-1-1-1z"></path>
	</symbol>
	<symbol id="icon-flag" viewBox="0 0 33 32">
		<path d="M5.714 4.571q0 1.286-1.143 1.964v22.607q0 0.232-0.17 0.402t-0.402 0.17h-1.143q-0.232 0-0.402-0.17t-0.17-0.402v-22.607q-1.143-0.679-1.143-1.964 0-0.946 0.67-1.616t1.616-0.67 1.616 0.67 0.67 1.616zM32 5.714v13.625q0 0.446-0.223 0.688t-0.705 0.491q-3.839 2.071-6.589 2.071-1.089 0-2.205-0.393t-1.938-0.857-2.063-0.857-2.545-0.393q-3.429 0-8.286 2.607-0.304 0.161-0.589 0.161-0.464 0-0.804-0.339t-0.339-0.804v-13.25q0-0.571 0.554-0.982 0.375-0.25 1.411-0.768 4.214-2.143 7.518-2.143 1.911 0 3.571 0.518t3.911 1.571q0.679 0.339 1.571 0.339 0.964 0 2.098-0.375t1.964-0.839 1.571-0.839 0.973-0.375q0.464 0 0.804 0.339t0.339 0.804z"></path>
	</symbol>
	<symbol id="icon-podcast" viewBox="0 0 32 32">
<title>podcast</title>
<path d="M32 16c0-8.837-7.163-16-16-16s-16 7.163-16 16c0 6.877 4.339 12.739 10.428 15.002l-0.428 0.998h12l-0.428-0.998c6.089-2.263 10.428-8.125 10.428-15.002zM15.212 19.838c-0.713-0.306-1.212-1.014-1.212-1.838 0-1.105 0.895-2 2-2s2 0.895 2 2c0 0.825-0.499 1.533-1.212 1.839l-0.788-1.839-0.788 1.838zM16.821 19.915c1.815-0.379 3.179-1.988 3.179-3.915 0-2.209-1.791-4-4-4s-4 1.791-4 4c0 1.928 1.364 3.535 3.18 3.913l-2.332 5.441c-2.851-1.223-4.848-4.056-4.848-7.355 0-4.418 3.582-8.375 8-8.375s8 3.957 8 8.375c0 3.299-1.997 6.131-4.848 7.355l-2.331-5.439zM21.514 30.866l-2.31-5.39c3.951-1.336 6.796-5.073 6.796-9.476 0-5.523-4.477-10-10-10s-10 4.477-10 10c0 4.402 2.845 8.14 6.796 9.476l-2.31 5.39c-4.987-2.14-8.481-7.095-8.481-12.866 0-7.729 6.266-14.37 13.995-14.37s13.995 6.641 13.995 14.37c0 5.771-3.494 10.726-8.481 12.866z"></path>
</symbol>
	<symbol id="icon-minus" viewBox="0 0 32 32">
		<title>minus</title>
		<path class="path1" d="M0 13v6c0 0.552 0.448 1 1 1h30c0.552 0 1-0.448 1-1v-6c0-0.552-0.448-1-1-1h-30c-0.552 0-1 0.448-1 1z"></path>
	</symbol>

	<symbol id="icon-search" viewBox="0 0 30 32">
		<title>search</title>
		<path class="path1" d="M20.571 14.857q0-3.304-2.348-5.652t-5.652-2.348-5.652 2.348-2.348 5.652 2.348 5.652 5.652 2.348 5.652-2.348 2.348-5.652zM29.714 29.714q0 0.929-0.679 1.607t-1.607 0.679q-0.964 0-1.607-0.679l-6.125-6.107q-3.196 2.214-7.125 2.214-2.554 0-4.884-0.991t-4.018-2.679-2.679-4.018-0.991-4.884 0.991-4.884 2.679-4.018 4.018-2.679 4.884-0.991 4.884 0.991 4.018 2.679 2.679 4.018 0.991 4.884q0 3.929-2.214 7.125l6.125 6.125q0.661 0.661 0.661 1.607z"></path>
	</symbol>
	
	<symbol id="icon-play" viewBox="0 0 25 32">
		<title>play</title>
		<path d="M24.714 16.554l-23.714 13.179q-0.411 0.232-0.705 0.054t-0.295-0.643v-26.286q0-0.464 0.295-0.643t0.705 0.054l23.714 13.179q0.411 0.232 0.411 0.554t-0.411 0.554z"></path>
	</symbol>
	
    <!-- Directions -->
    
	<symbol id="icon-chevron-down" viewBox="0 0 20 20">
		<title>chevron-down</title>
		<path class="path1" d="M4.516 7.548c0.436-0.446 1.043-0.481 1.576 0l3.908 3.747 3.908-3.747c0.533-0.481 1.141-0.446 1.574 0 0.436 0.445 0.408 1.197 0 1.615-0.406 0.418-4.695 4.502-4.695 4.502-0.217 0.223-0.502 0.335-0.787 0.335s-0.57-0.112-0.789-0.335c0 0-4.287-4.084-4.695-4.502s-0.436-1.17 0-1.615z"></path>
	</symbol>
	
	<symbol id="icon-chevron-left" viewBox="0 0 20 20">
		<title>chevron-left</title>
		<path class="path1" d="M12.452 4.516c0.446 0.436 0.481 1.043 0 1.576l-3.747 3.908 3.747 3.908c0.481 0.533 0.446 1.141 0 1.574-0.445 0.436-1.197 0.408-1.615 0-0.418-0.406-4.502-4.695-4.502-4.695-0.223-0.217-0.335-0.502-0.335-0.787s0.112-0.57 0.335-0.789c0 0 4.084-4.287 4.502-4.695s1.17-0.436 1.615 0z"></path>
	</symbol>
	
	<symbol id="icon-chevron-right" viewBox="0 0 20 20">
		<title>chevron-right</title>
		<path class="path1" d="M9.163 4.516c0.418 0.408 4.502 4.695 4.502 4.695 0.223 0.219 0.335 0.504 0.335 0.789s-0.112 0.57-0.335 0.787c0 0-4.084 4.289-4.502 4.695-0.418 0.408-1.17 0.436-1.615 0-0.446-0.434-0.481-1.041 0-1.574l3.747-3.908-3.747-3.908c-0.481-0.533-0.446-1.141 0-1.576s1.197-0.409 1.615 0z"></path>
	</symbol>
	
	<symbol id="icon-chevron-up" viewBox="0 0 20 20">
		<title>chevron-up</title>
		<path class="path1" d="M15.484 12.452c-0.436 0.446-1.043 0.481-1.576 0l-3.908-3.747-3.908 3.747c-0.533 0.481-1.141 0.446-1.574 0-0.436-0.445-0.408-1.197 0-1.615 0.406-0.418 4.695-4.502 4.695-4.502 0.217-0.223 0.502-0.335 0.787-0.335s0.57 0.112 0.789 0.335c0 0 4.287 4.084 4.695 4.502s0.436 1.17 0 1.615z"></path>
	</symbol>
	
	
	<!-- Social -->
	
	<symbol id="icon-mail" viewBox="0 0 20 20">
		<title>mail</title>
		<path class="path1" d="M1.574 5.286c0.488 0.262 7.248 3.894 7.5 4.029s0.578 0.199 0.906 0.199c0.328 0 0.654-0.064 0.906-0.199s7.012-3.767 7.5-4.029c0.489-0.263 0.951-1.286 0.054-1.286h-16.919c-0.897 0-0.435 1.023 0.053 1.286zM18.613 7.489c-0.555 0.289-7.387 3.849-7.727 4.027s-0.578 0.199-0.906 0.199-0.566-0.021-0.906-0.199-7.133-3.739-7.688-4.028c-0.39-0.204-0.386 0.035-0.386 0.219s0 7.293 0 7.293c0 0.42 0.566 1 1 1h16c0.434 0 1-0.58 1-1 0 0 0-7.108 0-7.292s0.004-0.423-0.387-0.219z"></path>
	</symbol>
	
	<symbol id="icon-phone" viewBox="0 0 25 32">
<title>phone</title>
<path d="M25.143 22.143q0 0.482-0.179 1.259t-0.375 1.223q-0.375 0.893-2.179 1.893-1.679 0.911-3.321 0.911-0.482 0-0.938-0.063t-1.027-0.223-0.848-0.259-0.991-0.366-0.875-0.321q-1.75-0.625-3.125-1.482-2.286-1.411-4.723-3.848t-3.848-4.723q-0.857-1.375-1.482-3.125-0.054-0.161-0.321-0.875t-0.366-0.991-0.259-0.848-0.223-1.027-0.063-0.938q0-1.643 0.911-3.321 1-1.804 1.893-2.179 0.446-0.196 1.223-0.375t1.259-0.179q0.25 0 0.375 0.054 0.321 0.107 0.946 1.357 0.196 0.339 0.536 0.964t0.625 1.134 0.554 0.955q0.054 0.071 0.313 0.446t0.384 0.634 0.125 0.509q0 0.357-0.509 0.893t-1.107 0.982-1.107 0.946-0.509 0.821q0 0.161 0.089 0.402t0.152 0.366 0.25 0.429 0.205 0.339q1.357 2.446 3.107 4.196t4.196 3.107q0.036 0.018 0.339 0.205t0.429 0.25 0.366 0.152 0.402 0.089q0.321 0 0.821-0.509t0.946-1.107 0.982-1.107 0.893-0.509q0.25 0 0.509 0.125t0.634 0.384 0.446 0.313q0.446 0.268 0.955 0.554t1.134 0.625 0.964 0.536q1.25 0.625 1.357 0.946 0.054 0.125 0.054 0.375z"></path>
</symbol>
	
	<symbol id="icon-share" viewBox="0 0 20 20">
		<title>share</title>
		<path class="path1" d="M15 13.442c-0.633 0-1.204 0.246-1.637 0.642l-5.938-3.463c0.046-0.188 0.075-0.384 0.075-0.584s-0.029-0.395-0.075-0.583l5.875-3.429c0.446 0.417 1.042 0.675 1.7 0.675 1.379 0 2.5-1.121 2.5-2.5s-1.121-2.5-2.5-2.5-2.5 1.121-2.5 2.5c0 0.2 0.029 0.396 0.075 0.583l-5.875 3.429c-0.446-0.416-1.042-0.675-1.7-0.675-1.379 0-2.5 1.121-2.5 2.5s1.121 2.5 2.5 2.5c0.658 0 1.254-0.258 1.7-0.675l5.938 3.463c-0.042 0.175-0.067 0.358-0.067 0.546 0 1.342 1.087 2.429 2.429 2.429s2.429-1.088 2.429-2.429-1.087-2.429-2.429-2.429z"></path>
	</symbol>
	
	<symbol id="icon-chat" viewBox="0 0 20 20">
		<title>chat</title>
		<path class="path1" d="M5.8 12.2v-6.2h-3.8c-1.1 0-2 0.9-2 2v6c0 1.1 0.9 2 2 2h1v3l3-3h5c1.1 0 2-0.9 2-2v-1.82c-0.064 0.014-0.132 0.021-0.2 0.021l-7-0.001zM18 1h-9c-1.1 0-2 0.9-2 2v8h7l3 3v-3h1c1.1 0 2-0.899 2-2v-6c0-1.1-0.9-2-2-2z"></path>
	</symbol>
	
	<symbol id="icon-facebook-square" viewBox="0 0 27 32">
		<title>facebook-square</title>
		<path class="path1" d="M22.286 2.286q2.125 0 3.634 1.509t1.509 3.634v17.143q0 2.125-1.509 3.634t-3.634 1.509h-3.357v-10.625h3.554l0.536-4.143h-4.089v-2.643q0-1 0.42-1.5t1.634-0.5l2.179-0.018v-3.696q-1.125-0.161-3.179-0.161-2.429 0-3.884 1.429t-1.455 4.036v3.054h-3.571v4.143h3.571v10.625h-9.5q-2.125 0-3.634-1.509t-1.509-3.634v-17.143q0-2.125 1.509-3.634t3.634-1.509h17.143z"></path>
	</symbol>
	
	<symbol id="icon-google-plus-square" viewBox="0 0 27 32">
		<title>google-plus-square</title>
		<path class="path1" d="M16.375 16.161q0-0.464-0.107-1.143h-6.464v2.357h3.875q-0.054 0.429-0.295 0.893t-0.67 0.946-1.188 0.795-1.723 0.313q-1.768 0-3.018-1.268t-1.25-3.054 1.25-3.054 3.018-1.268q1.643 0 2.732 1.054l1.857-1.804q-1.929-1.786-4.589-1.786-2.857 0-4.857 2.009t-2 4.848 2 4.848 4.857 2.009q2.946 0 4.759-1.875t1.812-4.821zM22.536 16.982h1.946v-1.964h-1.946v-1.964h-1.964v1.964h-1.964v1.964h1.964v1.964h1.964v-1.964zM27.429 7.429v17.143q0 2.125-1.509 3.634t-3.634 1.509h-17.143q-2.125 0-3.634-1.509t-1.509-3.634v-17.143q0-2.125 1.509-3.634t3.634-1.509h17.143q2.125 0 3.634 1.509t1.509 3.634z"></path>
	</symbol>
	
	<symbol id="icon-twitter-square" viewBox="0 0 27 32">
		<title>twitter-square</title>
		<path class="path1" d="M22.857 10.893q-1 0.446-2.161 0.607 1.214-0.714 1.661-2.089-1.161 0.679-2.393 0.911-1.089-1.179-2.732-1.179-1.554 0-2.652 1.098t-1.098 2.652q0 0.518 0.089 0.857-2.304-0.125-4.321-1.161t-3.429-2.768q-0.518 0.893-0.518 1.893 0 2.036 1.625 3.125-0.839-0.018-1.786-0.464v0.036q0 1.339 0.893 2.384t2.196 1.295q-0.518 0.143-0.911 0.143-0.232 0-0.696-0.071 0.375 1.125 1.33 1.857t2.17 0.75q-2.071 1.607-4.661 1.607-0.464 0-0.893-0.054 2.643 1.679 5.75 1.679 2 0 3.75-0.634t3-1.696 2.152-2.446 1.339-2.893 0.438-3.009q0-0.321-0.018-0.482 1.125-0.804 1.875-1.946zM27.429 7.429v17.143q0 2.125-1.509 3.634t-3.634 1.509h-17.143q-2.125 0-3.634-1.509t-1.509-3.634v-17.143q0-2.125 1.509-3.634t3.634-1.509h17.143q2.125 0 3.634 1.509t1.509 3.634z"></path>
	</symbol>
	
	<symbol id="icon-twitter" viewBox="0 0 30 32">
	<title>twitter</title>
	<path d="M28.929 7.286q-1.196 1.75-2.893 2.982 0.018 0.25 0.018 0.75 0 2.321-0.679 4.634t-2.063 4.437-3.295 3.759-4.607 2.607-5.768 0.973q-4.839 0-8.857-2.589 0.625 0.071 1.393 0.071 4.018 0 7.161-2.464-1.875-0.036-3.357-1.152t-2.036-2.848q0.589 0.089 1.089 0.089 0.768 0 1.518-0.196-2-0.411-3.313-1.991t-1.313-3.67v-0.071q1.214 0.679 2.607 0.732-1.179-0.786-1.875-2.054t-0.696-2.75q0-1.571 0.786-2.911 2.161 2.661 5.259 4.259t6.634 1.777q-0.143-0.679-0.143-1.321 0-2.393 1.688-4.080t4.080-1.688q2.5 0 4.214 1.821 1.946-0.375 3.661-1.393-0.661 2.054-2.536 3.179 1.661-0.179 3.321-0.893z"></path>
	</symbol>
	
	<symbol id="icon-linkedin-square" viewBox="0 0 27 32">
		<title>linkedin-square</title>
		<path class="path1" d="M4.232 25.25h4.125v-12.393h-4.125v12.393zM8.625 9.036q-0.018-0.929-0.643-1.536t-1.661-0.607-1.688 0.607-0.652 1.536q0 0.911 0.634 1.527t1.652 0.616h0.018q1.054 0 1.696-0.616t0.643-1.527zM19.071 25.25h4.125v-7.107q0-2.75-1.304-4.161t-3.446-1.411q-2.429 0-3.732 2.089h0.036v-1.804h-4.125q0.054 1.179 0 12.393h4.125v-6.929q0-0.679 0.125-1 0.268-0.625 0.804-1.063t1.321-0.438q2.071 0 2.071 2.804v6.625zM27.429 7.429v17.143q0 2.125-1.509 3.634t-3.634 1.509h-17.143q-2.125 0-3.634-1.509t-1.509-3.634v-17.143q0-2.125 1.509-3.634t3.634-1.509h17.143q2.125 0 3.634 1.509t1.509 3.634z"></path>
	</symbol>
	
	<!-- Settins, Users etc -->
	
	<symbol id="icon-user" viewBox="0 0 25 32">
		<title>user</title>
		<path class="path1" d="M25.143 25.089q0 2.143-1.304 3.384t-3.464 1.241h-15.607q-2.161 0-3.464-1.241t-1.304-3.384q0-0.946 0.063-1.848t0.25-1.946 0.473-1.938 0.768-1.741 1.107-1.446 1.527-0.955 1.991-0.357q0.161 0 0.75 0.384t1.33 0.857 1.929 0.857 2.384 0.384 2.384-0.384 1.929-0.857 1.33-0.857 0.75-0.384q1.089 0 1.991 0.357t1.527 0.955 1.107 1.446 0.768 1.741 0.473 1.938 0.25 1.946 0.063 1.848zM19.429 9.143q0 2.839-2.009 4.848t-4.848 2.009-4.848-2.009-2.009-4.848 2.009-4.848 4.848-2.009 4.848 2.009 2.009 4.848z"></path>
	</symbol>

	<symbol id="icon-cog" viewBox="0 0 27 32">
		<title>cog</title>
		<path class="path1" d="M18.286 16q0-1.893-1.339-3.232t-3.232-1.339-3.232 1.339-1.339 3.232 1.339 3.232 3.232 1.339 3.232-1.339 1.339-3.232zM27.429 14.054v3.964q0 0.214-0.143 0.411t-0.357 0.232l-3.304 0.5q-0.339 0.964-0.696 1.625 0.625 0.893 1.911 2.464 0.179 0.214 0.179 0.446t-0.161 0.411q-0.482 0.661-1.768 1.929t-1.679 1.268q-0.214 0-0.464-0.161l-2.464-1.929q-0.786 0.411-1.625 0.679-0.286 2.429-0.518 3.321-0.125 0.5-0.643 0.5h-3.964q-0.25 0-0.438-0.152t-0.205-0.384l-0.5-3.286q-0.875-0.286-1.607-0.661l-2.518 1.911q-0.179 0.161-0.446 0.161-0.25 0-0.446-0.196-2.25-2.036-2.946-3-0.125-0.179-0.125-0.411 0-0.214 0.143-0.411 0.268-0.375 0.911-1.188t0.964-1.259q-0.482-0.893-0.732-1.768l-3.268-0.482q-0.232-0.036-0.375-0.223t-0.143-0.42v-3.964q0-0.214 0.143-0.411t0.339-0.232l3.321-0.5q0.25-0.821 0.696-1.643-0.714-1.018-1.911-2.464-0.179-0.214-0.179-0.429 0-0.179 0.161-0.411 0.464-0.643 1.759-1.92t1.688-1.277q0.232 0 0.464 0.179l2.464 1.911q0.786-0.411 1.625-0.679 0.286-2.429 0.518-3.321 0.125-0.5 0.643-0.5h3.964q0.25 0 0.438 0.152t0.205 0.384l0.5 3.286q0.875 0.286 1.607 0.661l2.536-1.911q0.161-0.161 0.429-0.161 0.232 0 0.446 0.179 2.304 2.125 2.946 3.036 0.125 0.143 0.125 0.393 0 0.214-0.143 0.411-0.268 0.375-0.911 1.188t-0.964 1.259q0.464 0.893 0.732 1.75l3.268 0.5q0.232 0.036 0.375 0.223t0.143 0.42z"></path>
	</symbol>
	
	<!-- Form type elemnets -->

	<symbol id="icon-file-text2" viewBox="0 0 32 32">
		<title>file-text2</title>
		<path class="path1" d="M28.681 7.159c-0.694-0.947-1.662-2.053-2.724-3.116s-2.169-2.030-3.116-2.724c-1.612-1.182-2.393-1.319-2.841-1.319h-15.5c-1.378 0-2.5 1.121-2.5 2.5v27c0 1.378 1.122 2.5 2.5 2.5h23c1.378 0 2.5-1.122 2.5-2.5v-19.5c0-0.448-0.137-1.23-1.319-2.841zM24.543 5.457c0.959 0.959 1.712 1.825 2.268 2.543h-4.811v-4.811c0.718 0.556 1.584 1.309 2.543 2.268zM28 29.5c0 0.271-0.229 0.5-0.5 0.5h-23c-0.271 0-0.5-0.229-0.5-0.5v-27c0-0.271 0.229-0.5 0.5-0.5 0 0 15.499-0 15.5 0v7c0 0.552 0.448 1 1 1h7v19.5z"></path>
		<path class="path2" d="M23 26h-14c-0.552 0-1-0.448-1-1s0.448-1 1-1h14c0.552 0 1 0.448 1 1s-0.448 1-1 1z"></path>
		<path class="path3" d="M23 22h-14c-0.552 0-1-0.448-1-1s0.448-1 1-1h14c0.552 0 1 0.448 1 1s-0.448 1-1 1z"></path>
		<path class="path4" d="M23 18h-14c-0.552 0-1-0.448-1-1s0.448-1 1-1h14c0.552 0 1 0.448 1 1s-0.448 1-1 1z"></path>
	</symbol>
	
	<symbol id="icon-calendar" viewBox="0 0 32 32">
		<title>calendar</title>
		<path class="path1" d="M10 12h4v4h-4zM16 12h4v4h-4zM22 12h4v4h-4zM4 24h4v4h-4zM10 24h4v4h-4zM16 24h4v4h-4zM10 18h4v4h-4zM16 18h4v4h-4zM22 18h4v4h-4zM4 18h4v4h-4zM26 0v2h-4v-2h-14v2h-4v-2h-4v32h30v-32h-4zM28 30h-26v-22h26v22z"></path>
	</symbol>
	
	<symbol id="icon-download" viewBox="0 0 32 32">
		<title>download</title>
		<path class="path1" d="M16 18l8-8h-6v-8h-4v8h-6zM23.273 14.727l-2.242 2.242 8.128 3.031-13.158 4.907-13.158-4.907 8.127-3.031-2.242-2.242-8.727 3.273v8l16 6 16-6v-8z"></path>
	</symbol>
	
	<symbol id="icon-upload" viewBox="0 0 32 32">
		<title>upload</title>
		<path class="path1" d="M14 18h4v-8h6l-8-8-8 8h6zM20 13.5v3.085l9.158 3.415-13.158 4.907-13.158-4.907 9.158-3.415v-3.085l-12 4.5v8l16 6 16-6v-8z"></path>
	</symbol>
	
	<symbol id="icon-save" viewBox="0 0 20 20">
		<title>save</title>
		<path class="path1" d="M15.173 2h-11.173c-1.101 0-2 0.9-2 2v12c0 1.1 0.899 2 2 2h12c1.101 0 2-0.9 2-2v-10.873l-2.827-3.127zM14 8c0 0.549-0.45 1-1 1h-6c-0.55 0-1-0.451-1-1v-5h8v5zM13 4h-2v4h2v-4z"></path>
	</symbol>
	
	<!-- Ecommerce -->
	
	<symbol id="icon-credit-card" viewBox="0 0 32 32">
		<title>credit-card</title>
		<path class="path1" d="M29 4h-26c-1.65 0-3 1.35-3 3v18c0 1.65 1.35 3 3 3h26c1.65 0 3-1.35 3-3v-18c0-1.65-1.35-3-3-3zM3 6h26c0.542 0 1 0.458 1 1v3h-28v-3c0-0.542 0.458-1 1-1zM29 26h-26c-0.542 0-1-0.458-1-1v-9h28v9c0 0.542-0.458 1-1 1zM4 20h2v4h-2zM8 20h2v4h-2zM12 20h2v4h-2z"></path>
	</symbol>

</svg>