<?xml version="1.0" standalone="no"?>
<!-- Generator: Adobe Fireworks 10, Export SVG Extension by Aaron Beall (http://fireworks.abeall.com) . Version: 0.6.0  -->
<!DOCTYPE svg PUBLIC "-//W3C//DTD SVG 1.1//EN" "http://www.w3.org/Graphics/SVG/1.1/DTD/svg11.dtd">
<svg viewBox="0 0 325 55">
	<path d="M 39.2266 30.8599 C 43.5215 31.1309 46.8467 30.6675 49.9424 29.7388 L 50.6001 25.8696 C 48.2021 26.2559 44.4878 26.605 42.2061 26.5269 C 39.46 26.4897 38.6865 25.6763 39.2266 22.5435 C 40.6582 23.124 51.9937 24.9419 52.6113 15.5811 C 52.9214 10.8589 48.9756 9.6235 44.5659 9.6616 C 37.0215 9.6987 35.3203 12.6777 34.1201 18.9829 C 32.7275 26.4897 34.3135 30.6299 39.2266 30.8599 ZM 44.1782 14.0337 C 46.3452 13.9932 47.3896 14.4185 47.0415 16.3154 C 46.3833 20.106 39.6533 18.9829 39.6533 18.9829 C 40.1572 16.4321 40.5034 14.0723 44.1782 14.0337 Z" />
		<path d="M 3.9473 30.5889 L 9.3618 30.5889 L 13.0386 7.2627 L 20.9302 7.2627 L 21.7412 2.2705 L 0.8135 2.2705 L 0 7.2627 L 7.6216 7.2627 L 3.9473 30.5889 Z" />
		<path d="M 14.7002 18.9829 C 13.3081 26.4897 14.8936 30.6299 19.8066 30.8599 C 24.1001 31.1309 27.4292 30.6675 30.5229 29.7388 L 31.1802 25.8696 C 28.7817 26.2559 25.0679 26.605 22.7856 26.5269 C 20.0391 26.4897 19.2661 25.6763 19.8066 22.5435 C 21.2383 23.124 32.5728 24.9419 33.1914 15.5811 C 33.5015 10.8589 29.5557 9.6235 25.1455 9.6616 C 17.6016 9.6987 15.8989 12.6777 14.7002 18.9829 ZM 24.7583 14.0337 C 26.9248 13.9932 27.9697 14.4185 27.6211 16.3154 C 26.9634 20.106 20.2319 18.9829 20.2319 18.9829 C 20.7344 16.4321 21.0825 14.0723 24.7583 14.0337 Z" />
		<path d="M 227.6665 7.6489 L 229.6021 7.6489 C 230.1426 7.6489 230.5703 7.3398 230.6455 6.7607 L 230.9561 4.6699 C 231.0327 4.1299 230.8008 3.7041 230.2202 3.7041 L 228.2871 3.7041 C 227.6665 3.7041 227.2808 4.0889 227.2031 4.6699 L 226.8945 6.7607 C 226.8179 7.3018 227.1245 7.6489 227.6665 7.6489 Z" />
		<path d="M 127.5483 30.5889 L 130.1797 30.5889 L 130.5283 28.4238 C 130.4883 28.4238 127.6255 27.7266 127.6255 27.7266 C 126.1172 27.3779 125.4219 27.1089 126.0391 23.2769 L 129.6758 0.2988 L 126.8135 0.2988 L 123.1772 23.2769 C 122.4038 28.269 123.8735 30.5889 127.5483 30.5889 Z" />
		<path d="M 118.2632 30.5889 L 120.8945 30.5889 L 121.2422 28.4238 C 121.2046 28.4238 118.3389 27.7266 118.3389 27.7266 C 116.8311 27.3779 116.1357 27.1089 116.7539 23.2769 L 120.3911 0.2988 L 117.5283 0.2988 L 113.8926 23.2769 C 113.1182 28.269 114.5898 30.5889 118.2632 30.5889 Z" />
		<path d="M 69.7886 26.0635 L 70.1372 23.7041 C 70.6396 20.7256 69.3232 17.9775 65.3784 17.9775 L 60.6572 17.9775 C 59.9238 17.9775 58.9941 18.1709 59.2656 16.6636 L 59.4204 15.6567 C 59.5371 14.9219 59.8462 14.2251 61.2388 14.2251 L 70.5234 14.2251 L 71.0654 10.8218 C 69.6343 9.8945 64.2559 9.7759 60.3105 9.7759 C 56.3262 9.7759 54.5845 11.6348 54.0825 14.8833 L 53.7729 16.7407 C 53.1538 20.6865 55.2031 22.6978 58.8403 22.6978 L 63.4448 22.6978 C 64.5659 22.6978 64.7593 23.1626 64.6436 24.0127 L 64.4507 25.0586 C 64.2188 26.3345 63.2124 26.3721 62.8643 26.3721 L 53.1924 26.3721 L 52.6499 29.7388 C 53.9268 30.7056 60.0015 30.8599 63.9082 30.8599 C 66.2681 30.8599 69.1309 30.2803 69.7886 26.0635 Z" />
		<path d="M 62.5796 43.2041 C 41.0044 34.4238 20.4878 38.2427 7.1709 40.7456 C 4.6045 41.2275 2.2217 41.7739 0 42.3442 C 1.9385 41.916 3.9922 41.5068 6.1904 41.1611 C 19.4438 39.0508 40.0386 38.48 62.8994 47.7329 C 72.4565 51.6167 82.7852 53.8154 93.6436 54.2769 C 102.3281 54.6455 111.3691 53.9067 120.5132 52.0869 C 123.0518 51.5811 125.4404 51.0161 127.6924 50.4282 C 125.7251 50.8779 123.6587 51.3032 121.4688 51.6787 C 107.1646 54.1426 85.4399 52.4536 62.5796 43.2041 Z" />
		<path d="M 83.3296 30.5889 L 98.2222 2.2705 L 94.9365 2.2705 L 82.5156 25.9873 L 78.0278 2.2705 L 75.0107 2.2705 L 80.4639 30.5889 L 83.3296 30.5889 Z" />
		<path d="M 93.9683 19.8369 C 92.4199 29.1602 95.4785 30.8599 99.8896 30.8599 C 102.8662 30.8599 105.9604 29.0034 107.0835 28.269 L 107.5093 30.5889 L 109.5591 30.5889 L 112.2666 12.0596 C 110.2949 10.165 105.0327 9.313 102.3252 9.6616 C 99.1538 10.0483 95.3613 11.4409 93.9683 19.8369 ZM 102.6343 12.4839 C 104.2207 12.1763 106.9688 12.4839 109.2891 13.1035 L 107.2759 26.1411 C 104.6465 27.2632 102.8662 27.9971 99.8896 27.9971 C 96.8696 27.9971 95.8647 26.2168 96.7173 20.8789 C 97.9146 13.4912 100.1201 12.9497 102.6343 12.4839 Z" />
		<path d="M 167.3564 9.9688 C 167.1245 11.4019 166.9326 12.021 166.3896 13.0649 L 158.9233 27.6108 C 158.9233 27.6108 156.6016 27.9971 156.2915 26.1035 L 153.8174 10.0483 L 150.8379 10.0483 L 153.2744 26.3345 C 153.8555 30.2041 156.4863 30.5889 157.4526 30.5889 C 156.0205 33.3359 154.1255 36.8955 150.9917 38.9468 L 150.9917 40.9951 C 155.2886 40.145 157.7251 36.5859 160.8193 30.5513 L 169.3682 13.6841 C 169.9858 12.4839 170.1416 11.2476 169.7168 9.9688 L 167.3564 9.9688 Z" />
		<path d="M 278.4224 12.8716 L 284.4189 12.8716 L 284.8823 10.0088 L 278.8853 10.0088 L 279.7769 4.2832 L 277.6094 4.2832 L 276.0239 10.0088 L 272.0767 10.7051 L 271.7285 12.8716 L 275.5601 12.8716 L 273.9346 23.2769 C 273.1621 28.3081 274.5923 30.5889 278.3457 30.5889 L 280.9741 30.5889 L 281.2866 28.4238 C 281.2471 28.4238 278.3813 27.7266 278.3813 27.7266 C 276.8745 27.3779 276.2178 27.1089 276.7969 23.2769 L 278.4224 12.8716 Z" />
		<path d="M 270.5698 3.7041 L 268.6357 3.7041 C 268.0161 3.7041 267.6274 4.0889 267.5518 4.6699 L 267.2422 6.7607 C 267.1646 7.3018 267.4746 7.6489 268.0161 7.6489 L 269.9502 7.6489 C 270.4907 7.6489 270.9194 7.3398 270.9951 6.7607 L 271.3042 4.6699 C 271.3823 4.1299 271.1514 3.7041 270.5698 3.7041 Z" />
		<path d="M 70.0645 44.021 C 86.0361 46.9937 99.9326 51.4272 111.6396 50.8091 C 133.3086 48.6919 147.8545 41.1187 147.8545 41.1187 C 147.8545 41.1187 114.1895 52.2358 70.0645 44.021 Z" />
		<path d="M 322.2139 0.2207 L 320.4346 11.2856 C 318.1138 10.2793 314.8267 9.7378 313.0845 9.7378 C 307.2446 9.7378 305.5029 14.9219 304.6118 20.4146 C 303.8384 25.1338 304.7661 30.8228 310.1826 30.8228 C 312.8135 30.8228 316.6025 29.0425 317.7261 28.3081 L 318.1138 30.5889 L 320.1641 30.5889 L 325 0.2207 L 322.2139 0.2207 ZM 318.0752 26.1802 C 315.8701 27.0313 313.3169 27.9595 310.2612 27.9595 C 307.6689 27.9595 306.6611 25.2129 307.4736 20.4146 C 308.52 14.1089 310.2983 12.6011 312.6211 12.6011 C 315.5991 12.6011 317.4951 12.9121 320.0488 13.606 L 318.0752 26.1802 Z" />
		<path d="M 295.4824 9.6616 C 287.9385 9.6616 286.4678 13.5298 285.2681 19.8369 C 283.8779 27.3398 285.1924 30.8599 290.1436 30.8599 C 293.3535 30.8599 296.5645 30.6299 299.8135 29.7388 L 300.1226 27.5728 C 297.1074 27.9971 293.4331 28.3467 290.4932 28.1147 C 287.7456 28.0747 287.0107 26.605 287.8228 21.8081 C 289.2529 22.3882 301.7886 24.0513 302.8711 15.5811 C 303.4521 11.0928 300.3564 9.6616 295.4824 9.6616 ZM 300.0078 15.5811 C 299.1196 20.9185 288.1323 19.7202 288.1323 19.7202 C 288.8662 16.1992 289.1768 12.5239 295.3286 12.5239 C 298.7705 12.5239 300.4722 12.833 300.0078 15.5811 Z" />
		<path d="M 257.5713 9.8154 C 253.8193 9.8154 250.8779 11.481 248.5962 13.1426 C 248.0146 11.2476 245.9268 9.8154 243.6069 9.8154 C 240.3936 9.8154 238.4614 11.1689 235.8696 12.5239 L 235.4043 10.0483 L 233.3931 10.0483 L 230.1426 30.5889 L 233.0068 30.5889 L 235.4824 14.8457 C 238.6924 13.4121 240.0469 12.6777 243.1421 12.6777 C 244.9976 12.6777 246.4297 14.1499 246.0825 16.4321 L 243.8384 30.5889 L 246.7012 30.5889 L 248.9434 16.5083 L 249.1763 14.8457 C 252.0005 13.1812 253.8955 12.6777 257.1069 12.6777 C 258.9644 12.6777 260.3574 14.1499 260.0083 16.4321 L 257.7642 30.5889 L 260.6265 30.5889 L 262.8711 16.4321 C 263.4907 12.4839 260.8599 9.8154 257.5713 9.8154 Z" />
		<path d="M 263.9165 30.5889 L 266.7793 30.5889 L 270.0269 10.0483 L 267.1646 10.0483 L 263.9165 30.5889 Z" />
		<path d="M 141.9033 9.6616 C 134.3584 9.6616 132.8882 13.5298 131.6875 19.8369 C 130.2959 27.3398 131.6108 30.8599 136.5635 30.8599 C 139.7739 30.8599 142.9849 30.6299 146.2344 29.7388 L 146.5435 27.5728 C 143.5264 27.9971 139.8516 28.3467 136.9111 28.1147 C 134.1636 28.0747 133.4297 26.605 134.2417 21.8081 C 135.6738 22.3882 148.2075 24.0513 149.29 15.5811 C 149.8701 11.0928 146.7759 9.6616 141.9033 9.6616 ZM 146.4268 15.5811 C 145.5381 20.9185 134.5527 19.7202 134.5527 19.7202 C 135.2861 16.1992 135.5957 12.5239 141.7476 12.5239 C 145.1885 12.5239 146.8916 12.833 146.4268 15.5811 Z" />
		<path d="M 223.5674 30.5889 L 226.4287 30.5889 L 229.6792 10.0483 L 226.8179 10.0483 L 223.5674 30.5889 Z" />
		<path d="M 192.1143 2.2705 L 189.4844 18.9067 C 188.4009 25.793 185.8096 27.9209 180.7803 27.9209 C 176.1377 27.9209 174.1265 26.2559 175.2881 18.9067 L 177.9165 2.2705 L 175.0171 2.2705 L 172.3848 18.9067 C 171.0317 27.4561 174.2041 30.7832 180.5483 30.7832 C 189.9482 30.7832 191.4971 24.4385 192.3857 18.9067 L 195.0171 2.2705 L 192.1143 2.2705 Z" />
		<path d="M 218.2656 23.2769 L 221.9023 0.2988 L 219.0396 0.2988 L 215.4038 23.2769 C 214.6284 28.269 216.0996 30.5889 219.7754 30.5889 L 222.4053 30.5889 L 222.7534 28.4238 C 222.7148 28.4238 219.8506 27.7266 219.8506 27.7266 C 218.3428 27.3779 217.6475 27.1089 218.2656 23.2769 Z" />
		<path d="M 207.9766 9.6987 C 204.8428 9.6987 202.5205 11.0928 199.9287 12.4468 L 199.4648 10.0483 L 197.4546 10.0483 L 194.2051 30.5889 L 197.0659 30.5889 L 199.5815 14.7676 C 202.7915 13.3369 204.4155 12.5625 207.5112 12.5625 C 209.4854 12.5625 210.8008 13.7241 210.4121 16.2749 L 208.1304 30.5889 L 210.9937 30.5889 L 213.2764 16.2749 C 213.8174 12.8716 212.0762 9.6987 207.9766 9.6987 Z" />
</svg>