<svg xmlns="http://www.w3.org/2000/svg" xmlns:xlink="http://www.w3.org/1999/xlink" version="1.1" >
    <symbol id="logo" viewBox="0 0 454 101" width="100%" height="100%">
       <path d="M 397.5814 88.3011 C 410.2296 88.3011 421.9205 93.2206 430.0857 95.5838 C 437.741 97.7937 442.7807 100.4623 447.2676 99.1192 C 448.8792 98.6448 452.7606 96.9581 453.6337 91.6618 C 453.9091 89.8706 453.8486 87.8277 453.4266 85.4089 C 451.7213 75.1071 443.5699 56.3142 434.0648 40.7249 C 428.7164 31.9633 423.1629 24.5537 417.9806 19.3062 C 410.8078 12.0299 404.1741 8.4051 397.5521 8.408 C 390.9302 8.4051 384.3043 12.0299 377.1237 19.3062 C 371.9433 24.5537 366.3898 31.9633 361.0454 40.7249 C 351.5363 56.3142 343.381 75.1071 341.6776 85.4089 C 341.2557 87.8277 341.199 89.8706 341.4745 91.6618 C 342.3457 96.9581 346.231 98.6448 347.8386 99.1192 C 352.3314 100.4623 357.3652 97.7937 365.0205 95.5838 C 373.1857 93.2206 384.8825 88.3011 397.5248 88.3011 L 397.5814 88.3011 Z"/>
	<path d="M 74.2866 68.6385 C 74.2866 68.6385 97.6881 35.7711 101.8777 28.9774 C 103.7773 25.8983 107.8198 16.1412 96.7207 10.1689 L 96.7271 10.1699 C 87.4392 5.1713 72.2136 0.4025 52.6275 0.4025 C 38.6662 0.4025 17.3275 2.977 12.9285 10.4276 C 10.5283 14.3154 11.712 19.0475 15.632 21.8168 C 18.0942 23.5611 30.0997 32.0658 30.0997 32.0658 C 30.0997 32.0658 6.6972 64.9322 2.5038 71.7259 C 0.6066 74.8026 -3.4408 84.5636 7.6622 90.5373 L 7.6553 90.5373 C 16.9446 95.532 32.1664 100.3003 51.7563 100.3003 C 65.7206 100.3003 89.2261 97.7292 93.6197 90.2796 C 96.0253 86.385 94.8127 81.2858 90.9177 78.8885 C 88.5136 77.4048 74.2866 68.6385 74.2866 68.6385 Z"/>
	<path d="M 255.8265 73.7532 C 255.8265 73.7532 300.3353 94.0406 307.8128 97.4481 C 311.1463 98.9679 320.8194 103.4658 326.871 92.226 L 326.871 92.2338 C 331.9341 82.832 336.7688 67.4232 336.7688 47.5991 C 336.7688 33.4666 334.161 13.9094 326.6132 9.4568 C 322.6712 7.0283 317.4987 8.2519 315.0687 12.1914 C 313.5656 14.6263 304.6815 29.0297 304.6815 29.0297 C 304.6815 29.0297 260.1738 8.7409 252.6962 5.3323 C 249.3618 3.8135 239.6887 -0.6853 233.6332 10.5515 L 233.6332 10.5462 C 228.572 19.9465 223.7379 35.3548 223.7379 55.1819 C 223.7379 69.3149 226.3437 88.8711 233.891 93.3221 C 237.8369 95.7507 243.0075 94.5296 245.4394 90.5891 C 246.9426 88.1498 255.8265 73.7532 255.8265 73.7532 Z"/>
	<path d="M 214.6439 51.3902 C 214.6439 76.5049 190.421 100.597 160.6495 100.597 C 130.8692 100.597 106.6478 76.5049 106.6478 51.3902 C 106.6478 26.281 130.8692 2.1854 160.6495 2.1854 C 190.421 2.1854 214.6439 26.2824 214.6439 51.3902 Z"/>
    </symbol>
    

	<symbol id="aviva" viewBox="0 0 281 197" width="100%" height="100%">
		<path d="M 129.4766 143.7739 C 130.6484 143.9849 134.8525 145.2114 134.8525 148.1978 L 134.8525 196.0259 L 149.0703 196.0259 L 149.0703 142.0708 L 129.4766 142.0708 L 129.4766 143.7739 L 129.4766 143.7739 Z" />
		<path d="M 17.6758 142.0698 L 17.6758 143.7749 C 19.3994 144.1313 23.1338 145.1743 21.6201 148.5435 L 0.417 196.0259 L 11.6182 196.0259 L 18.2578 181.2251 L 41.7461 181.2251 L 47.5498 196.0259 L 62.2803 196.0259 L 41.2393 142.0698 L 17.6758 142.0698 ZM 21.2656 174.52 L 30.792 153.2935 L 39.1123 174.52 L 21.2656 174.52 Z" />
		<path d="M 235.666 142.0698 L 235.666 143.7749 C 237.3848 144.1313 241.123 145.1743 239.6055 148.5435 L 218.4092 196.0259 L 229.6123 196.0259 L 236.2402 181.2251 L 259.7275 181.2251 L 265.5371 196.0259 L 280.2783 196.0259 L 259.2256 142.0698 L 235.666 142.0698 ZM 239.2559 174.52 L 248.7793 153.2935 L 257.1035 174.52 L 239.2559 174.52 Z" />
		<path d="M 197.8447 196.0259 L 220.3262 142.0708 L 209.6934 142.0708 L 193.2031 181.6362 L 177.5166 142.0708 L 157.5352 142.0708 L 157.5352 143.7739 C 159.8457 144.2173 162.4336 145.2114 163.6152 148.1978 L 182.5791 196.0259 L 197.8447 196.0259 Z" />
		<path d="M 99.2891 196.0259 L 121.7773 142.0708 L 111.1406 142.0708 L 94.6543 181.6362 L 78.96 142.0708 L 58.9834 142.0708 L 58.9834 143.7739 C 61.2949 144.2173 63.8789 145.2114 65.0664 148.1978 L 84.0215 196.0259 L 99.2891 196.0259 Z" />
		<path d="M 200.8281 97.4248 L 200.8574 0.873 L 168.2861 0.8599 L 168.2861 0.873 L 177.7295 98.1318 C 185.2705 97.689 192.9736 97.439 200.8281 97.4248 L 200.8281 97.4248 Z" />
		<path d="M 158.6973 99.7505 L 168.2832 0.874 L 168.2832 0.8599 L 83.125 0.873 L 83.1699 118.2778 C 103.1758 109.5337 129.2227 103.0151 158.6973 99.7505 L 158.6973 99.7505 Z" />
	</symbol>
	
    
</svg>
